<?xml version="1.0" encoding="utf-8"?>
<!-- Generator: Adobe Illustrator 19.0.0, SVG Export Plug-In . SVG Version: 6.00 Build 0)  -->
<svg version="1.1" id="Camada_1" xmlns="http://www.w3.org/2000/svg" xmlns:xlink="http://www.w3.org/1999/xlink" x="0px" y="0px"
	 viewBox="0 0 398 230" style="enable-background:new 0 0 398 230;" xml:space="preserve">
<style type="text/css">
	.st0{fill:#ECECEC;}
	.st1{font-family:'Alef-Bold';}
	.st2{font-size:33px;}
</style>
<g>
	<g>
		<g>
			<path class="st0" d="M387.7,166.3c0.4,10.2-0.6,21.4-5.1,32c-6.6,15.7-27.7,26.3-44.4,23.5c-23-3.9-40.2-17.3-55.9-33.3
				c-6.7-6.9-12.8-14.5-19.8-21.1c-9.2-8.6-20.8-12.1-33.3-12.2c-19.7-0.2-39.3,0-59-0.1c-15.2,0-28.1,5.5-39,16
				c-11.4,10.9-22.5,22.2-34.6,32.4c-9.9,8.4-21.5,14.1-34.4,17c-25.2,5.6-49-10.9-51.2-36.7C6.4,128.6,21.8,79.2,55.7,35.6
				C66,22.4,79.2,12.6,96.2,9.2c12.2-2.5,24.1-0.6,35.5,3.9c8.5,3.4,16.7,7.3,25,11.1c28.2,13,56.3,13,84.5-0.1
				c9.2-4.2,18.3-8.6,27.8-12c24.7-8.9,46.3-2.8,64.9,15c21.3,20.3,33.6,45.9,42.6,73.3C383.5,121.4,388.1,142.8,387.7,166.3z
				 M92.7,106.4c0,4.3,0,7.8,0,11.3c0.1,4.5-0.5,9.1,0.4,13.4c1.4,6.6,8,10.1,15.6,9.3c6.1-0.7,11-6.4,11.1-13.3
				c0.1-6.8,0-13.5,0-20.7c7.1,0,13.6,0,20,0c8.6-0.1,14-5.5,14-13.9c0-8.2-5.3-13.2-14-13.2c-6.6,0-13.2,0-20,0
				c0-7.1,0-13.5,0-19.8c0-8.5-6.3-15.5-13.9-15C97.3,45,91.9,52,92.5,59.3c0.6,6.5,0.1,13.2,0.1,19.9c-7.2,0-13.5,0.5-19.8-0.1
				c-8.2-0.8-14.8,5.8-15,13.8c-0.2,7.7,6.8,13.5,15.3,13.5C79.5,106.4,85.8,106.4,92.7,106.4z M341.9,89.4c0-10-8.2-18.7-17.7-18
				c-11.5,0.8-17.6,9.2-17.5,17.9c0.1,10,8.2,18.6,17.9,18C336.1,106.7,342.7,97.3,341.9,89.4z M289.4,72.4
				c9.7,0.1,17.6-6.4,18.3-17.7c0.5-9.3-7.8-17-17.1-17.7c-10.2-0.7-18.5,7.8-18.8,17.6C271.5,64.2,279.8,72.4,289.4,72.4z
				 M237.7,89.2c-1.3,9.1,7.5,18,17.6,18.1c9.4,0.1,17.8-8.4,17.6-17.8c-0.3-11.5-8.1-18-17.8-18C244.1,71.5,236.4,81,237.7,89.2z
				 M289.5,141.4c8.4,1.2,18.1-6.1,18-17.5c-0.1-9.8-6.5-17.2-17.7-17.6c-9.8-0.4-18.2,8.2-18.1,17.8
				C271.7,133.6,279.8,141.4,289.5,141.4z"/>
		</g>
	</g>
	<text transform="matrix(1 0 0 1 149.4353 186.6659)" class="st0 st1 st2">game</text>
	<text transform="matrix(1 0 0 1 164.1033 219.0683)" class="st0 st1 st2">list</text>
</g>
</svg>
