<?xml version="1.0" encoding="utf-8"?>
<!-- Generator: Adobe Illustrator 19.0.0, SVG Export Plug-In . SVG Version: 6.00 Build 0)  -->
<svg version="1.1" id="Camada_1" xmlns="http://www.w3.org/2000/svg" xmlns:xlink="http://www.w3.org/1999/xlink" x="0px" y="0px"
	 viewBox="0 0 227 230" style="enable-background:new 0 0 227 230;" xml:space="preserve">
<style type="text/css">
	.st0{display:none;}
	.st1{display:inline;}
	.st2{fill:#ECECEC;}
</style>
<g class="st0">
	<g class="st1">
		<g>
			<path class="st2" d="M901.7,148.3c0.4,10.2-0.6,21.4-5.1,32c-6.6,15.7-27.7,26.3-44.4,23.5c-23-3.9-40.2-17.3-55.9-33.3
				c-6.7-6.9-12.8-14.5-19.8-21.1c-9.2-8.6-20.8-12.1-33.3-12.2c-19.7-0.2-39.3,0-59-0.1c-15.2,0-28.1,5.5-39,16
				c-11.4,10.9-22.5,22.2-34.6,32.4c-9.9,8.4-21.5,14.1-34.4,17c-25.2,5.6-49-10.9-51.2-36.7c-4.6-55.2,10.8-104.6,44.7-148.1
				c10.3-13.2,23.5-23,40.5-26.4c12.2-2.5,24.1-0.6,35.5,3.9c8.5,3.4,16.7,7.3,25,11.1c28.2,13,56.3,13,84.5-0.1
				c9.2-4.2,18.3-8.6,27.8-12c24.7-8.9,46.3-2.8,64.9,15c21.3,20.3,33.6,45.9,42.6,73.3C897.5,103.4,902.1,124.8,901.7,148.3z
				 M606.7,88.4c0,4.3,0,7.8,0,11.3c0.1,4.5-0.5,9.1,0.4,13.4c1.4,6.6,8,10.1,15.6,9.3c6.1-0.7,11-6.4,11.1-13.3
				c0.1-6.8,0-13.5,0-20.7c7.1,0,13.6,0,20,0c8.6-0.1,14-5.5,14-13.9c0-8.2-5.3-13.2-14-13.2c-6.6,0-13.2,0-20,0
				c0-7.1,0-13.5,0-19.8c0-8.5-6.3-15.5-13.9-15c-8.6,0.6-14.1,7.6-13.4,14.9c0.6,6.5,0.1,13.2,0.1,19.9c-7.2,0-13.5,0.5-19.8-0.1
				c-8.2-0.8-14.8,5.8-15,13.8c-0.2,7.7,6.8,13.5,15.3,13.5C593.5,88.4,599.8,88.4,606.7,88.4z M855.9,71.4c0-10-8.2-18.7-17.7-18
				c-11.5,0.8-17.6,9.2-17.5,17.9c0.1,10,8.2,18.6,17.9,18C850.1,88.7,856.7,79.3,855.9,71.4z M803.4,54.4
				c9.7,0.1,17.6-6.4,18.3-17.7c0.5-9.3-7.8-17-17.1-17.7c-10.2-0.7-18.5,7.8-18.8,17.6C785.5,46.2,793.8,54.4,803.4,54.4z
				 M751.7,71.2c-1.3,9.1,7.5,18,17.6,18.1c9.4,0.1,17.8-8.4,17.6-17.8c-0.3-11.5-8.1-18-17.8-18C758.1,53.5,750.4,63,751.7,71.2z
				 M803.5,123.4c8.4,1.2,18.1-6.1,18-17.5c-0.1-9.8-6.5-17.2-17.7-17.6c-9.8-0.4-18.2,8.2-18.1,17.8
				C785.7,115.6,793.8,123.4,803.5,123.4z"/>
		</g>
	</g>
	
		<text transform="matrix(1 0 0 1 663.4353 168.6659)" style="display:inline;fill:#ECECEC; font-family:'Alef-Bold'; font-size:33px;">game</text>
	
		<text transform="matrix(1 0 0 1 678.1033 201.0683)" style="display:inline;fill:#ECECEC; font-family:'Alef-Bold'; font-size:33px;">list</text>
</g>
<g>
	<g>
		<path class="st2" d="M61.6,29.9c1.4,1,2.8,1.9,4.1,2.9c3.5,2.9,4,8.2,0.4,11c-11.3,8.9-12.6,24.8-6.7,37.5
			c2.1,4.5,5.4,8.5,8.3,12.7c0.4,0.6,1.7,0.9,2.4,0.7c8.4-1.6,16.6-3.8,25-5c9.9-1.4,19.9-1.4,30-0.7c11.1,0.8,21.9,3,32.5,6
			c1.2,0.3,1.9,0.2,2.7-0.7c7.7-8.8,12.2-18.9,11.5-30.8c-0.4-7.2-3-13.8-8.8-18.4c-4.7-3.7-4.9-10.5,1-13.6c0.8-0.4,1.5-1,2.3-1.6
			c-1.3-2.2-2.6-4.4-3.9-6.6c-1.7-3-1.5-6.2,0.4-8.5c2-2.5,5.1-3.4,8.5-2.3c21.1,7.2,34.5,21.7,38.7,43.7c3.9,20.1-2,38-14.6,53.8
			c-3.4,4.3-8,7.8-11.9,11.8c-0.7,0.7-1.3,2-1.3,3c-0.1,14.7,0,29.3-0.1,44c0,23.1-17.6,44-40.4,48.2c-3.1,0.6-6.3,0.9-9.5,0.9
			c-12.5,0.1-25,0.1-37.5,0c-21.9,0-42.3-15.8-47.7-38.1c-0.9-3.9-1.3-7.9-1.4-11.9c-0.2-14.4-0.1-28.7,0-43.1
			c0-1.5-0.4-2.4-1.6-3.4c-14.1-11-23-25.3-26.2-42.8c-3.3-17.9,0.4-34.4,12.2-48.6c7.1-8.5,16.1-14.4,26.7-17.6
			c3.2-1,6.1-0.3,8.3,2.4c1.9,2.3,2.1,5.5,0.4,8.5C64.2,25.5,62.9,27.7,61.6,29.9z M58.9,19.8c-0.7,0.1-1,0.1-1.2,0.2
			c-24.2,8.6-36.5,31.5-32.8,54.7c2.8,17.6,11.5,32.3,26.2,42.9c1.3,0.9,1.9,2.1,1.9,3.8c-0.1,12.2-0.1,24.4,0,36.6
			c0,4.5,0.1,9,0.4,13.4c1,12.7,6.8,22.8,16.8,30.5c8,6.2,17.2,8.7,27.1,8.8c11.2,0.1,22.3,0,33.5,0c2.4,0,4.8-0.1,7.2-0.5
			c13.6-2.3,24.2-9.2,31.3-21.2c4.2-7,5.8-14.8,5.9-22.8c0.1-14.9,0-29.8,0-44.7c0-1.7,0.5-3,1.9-4c8-5.3,13.7-12.6,18.4-20.8
			c6.4-11.3,9.8-23.3,8-36.4c-2-14-8.7-25.4-20.2-33.8c-4.2-3-8.7-5.3-14.2-6.9c1.8,3.1,3.4,5.7,5,8.4c1.9,3.2,1.6,4.7-1.6,6.9
			c-1.7,1.2-3.5,2.4-5.2,3.6c0.9,0.8,1.6,1.4,2.2,2c0.6,0.6,1.2,1.3,1.8,2c6.6,8.1,9.1,17.4,8,27.7c-1.3,12.5-6.6,22.9-15.4,31.7
			c-1.4,1.4-2.9,1.8-4.9,1.2c-10.8-3.2-21.9-5.4-33.1-6.5c-10.3-1-20.6-0.8-30.8,0.7c-8.8,1.3-17.4,3.6-26.1,5.5
			c-1.8,0.4-3.3,0.2-4.7-1.2c-4.1-4-7.5-8.5-10.1-13.6c-4.5-8.8-6.7-18.2-5.2-28.1c1.3-8.5,5.1-15.8,11.8-21.4
			c-0.2-0.2-0.4-0.3-0.6-0.5c-1.7-1.1-3.3-2.2-5-3.4c-2.7-1.8-3.1-3.5-1.4-6.3C55.4,25.7,57,22.9,58.9,19.8z"/>
		<path class="st2" d="M99.6,163.5c0.1,6.7-1.8,12.1-5.9,16.7c-6.9,7.5-17.3,7.5-24.2-0.1c-7.8-8.6-8-23.1-0.3-31.7
			c7.7-8.6,19.8-7.8,26.4,1.8C98.4,154.4,99.8,159,99.6,163.5z"/>
		<path class="st2" d="M128.3,164.5c-0.1-6.6,1.7-11.9,5.8-16.4c6.9-7.6,17.4-7.6,24.4-0.1c8.1,8.8,7.9,24-0.5,32.6
			c-7.5,7.7-19.2,6.6-25.5-2.5C129.6,173.9,128.1,169.2,128.3,164.5z"/>
	</g>
</g>
</svg>
