<?xml version="1.0" encoding="utf-8"?>
<!-- Generator: Adobe Illustrator 19.0.0, SVG Export Plug-In . SVG Version: 6.00 Build 0)  -->
<svg version="1.1" id="Camada_1" xmlns="http://www.w3.org/2000/svg" xmlns:xlink="http://www.w3.org/1999/xlink" x="0px" y="0px"
	 viewBox="0 0 227 230" style="enable-background:new 0 0 227 230;" xml:space="preserve">
<style type="text/css">
	.st0{display:none;}
	.st1{display:inline;}
	.st2{fill:#ECECEC;}
	.st3{fill:#212121;}
	.st4{display:inline;fill:#212121;}
	.st5{fill:#FFFFFF;}
</style>
<g class="st0">
	<g class="st1">
		<g>
			<path class="st2" d="M901.7,148.3c0.4,10.2-0.6,21.4-5.1,32c-6.6,15.7-27.7,26.3-44.4,23.5c-23-3.9-40.2-17.3-55.9-33.3
				c-6.7-6.9-12.8-14.5-19.8-21.1c-9.2-8.6-20.8-12.1-33.3-12.2c-19.7-0.2-39.3,0-59-0.1c-15.2,0-28.1,5.5-39,16
				c-11.4,10.9-22.5,22.2-34.6,32.4c-9.9,8.4-21.5,14.1-34.4,17c-25.2,5.6-49-10.9-51.2-36.7c-4.6-55.2,10.8-104.6,44.7-148.1
				c10.3-13.2,23.5-23,40.5-26.4c12.2-2.5,24.1-0.6,35.5,3.9c8.5,3.4,16.7,7.3,25,11.1c28.2,13,56.3,13,84.5-0.1
				c9.2-4.2,18.3-8.6,27.8-12c24.7-8.9,46.3-2.8,64.9,15c21.3,20.3,33.6,45.9,42.6,73.3C897.5,103.4,902.1,124.8,901.7,148.3z
				 M606.7,88.4c0,4.3,0,7.8,0,11.3c0.1,4.5-0.5,9.1,0.4,13.4c1.4,6.6,8,10.1,15.6,9.3c6.1-0.7,11-6.4,11.1-13.3
				c0.1-6.8,0-13.5,0-20.7c7.1,0,13.6,0,20,0c8.6-0.1,14-5.5,14-13.9c0-8.2-5.3-13.2-14-13.2c-6.6,0-13.2,0-20,0
				c0-7.1,0-13.5,0-19.8c0-8.5-6.3-15.5-13.9-15c-8.6,0.6-14.1,7.6-13.4,14.9c0.6,6.5,0.1,13.2,0.1,19.9c-7.2,0-13.5,0.5-19.8-0.1
				c-8.2-0.8-14.8,5.8-15,13.8c-0.2,7.7,6.8,13.5,15.3,13.5C593.5,88.4,599.8,88.4,606.7,88.4z M855.9,71.4c0-10-8.2-18.7-17.7-18
				c-11.5,0.8-17.6,9.2-17.5,17.9c0.1,10,8.2,18.6,17.9,18C850.1,88.7,856.7,79.3,855.9,71.4z M803.4,54.4
				c9.7,0.1,17.6-6.4,18.3-17.7c0.5-9.3-7.8-17-17.1-17.7c-10.2-0.7-18.5,7.8-18.8,17.6C785.5,46.2,793.8,54.4,803.4,54.4z
				 M751.7,71.2c-1.3,9.1,7.5,18,17.6,18.1c9.4,0.1,17.8-8.4,17.6-17.8c-0.3-11.5-8.1-18-17.8-18C758.1,53.5,750.4,63,751.7,71.2z
				 M803.5,123.4c8.4,1.2,18.1-6.1,18-17.5c-0.1-9.8-6.5-17.2-17.7-17.6c-9.8-0.4-18.2,8.2-18.1,17.8
				C785.7,115.6,793.8,123.4,803.5,123.4z"/>
		</g>
	</g>
	
		<text transform="matrix(1 0 0 1 663.4353 168.6659)" style="display:inline;fill:#ECECEC; font-family:'Alef-Bold'; font-size:33px;">game</text>
	
		<text transform="matrix(1 0 0 1 678.1033 201.0683)" style="display:inline;fill:#ECECEC; font-family:'Alef-Bold'; font-size:33px;">list</text>
</g>
<g class="st0">
	<g class="st1">
		<path class="st2" d="M-303.4,28.9c1.4,1,2.8,1.9,4.1,2.9c3.5,2.9,4,8.2,0.4,11c-11.3,8.9-12.6,24.8-6.7,37.5
			c2.1,4.5,5.4,8.5,8.3,12.7c0.4,0.6,1.7,0.9,2.4,0.7c8.4-1.6,16.6-3.8,25-5c9.9-1.4,19.9-1.4,30-0.7c11.1,0.8,21.9,3,32.5,6
			c1.2,0.3,1.9,0.2,2.7-0.7c7.7-8.8,12.2-18.9,11.5-30.8c-0.4-7.2-3-13.8-8.8-18.4c-4.7-3.7-4.9-10.5,1-13.6c0.8-0.4,1.5-1,2.3-1.6
			c-1.3-2.2-2.6-4.4-3.9-6.6c-1.7-3-1.5-6.2,0.4-8.5c2-2.5,5.1-3.4,8.5-2.3c21.1,7.2,34.5,21.7,38.7,43.7c3.9,20.1-2,38-14.6,53.8
			c-3.4,4.3-8,7.8-11.9,11.8c-0.7,0.7-1.3,2-1.3,3c-0.1,14.7,0,29.3-0.1,44c0,23.1-17.6,44-40.4,48.2c-3.1,0.6-6.3,0.9-9.5,0.9
			c-12.5,0.1-25,0.1-37.5,0c-21.9,0-42.3-15.8-47.7-38.1c-0.9-3.9-1.3-7.9-1.4-11.9c-0.2-14.4-0.1-28.7,0-43.1
			c0-1.5-0.4-2.4-1.6-3.4c-14.1-11-23-25.3-26.2-42.8c-3.3-17.9,0.4-34.4,12.2-48.6c7.1-8.5,16.1-14.4,26.7-17.6
			c3.2-1,6.1-0.3,8.3,2.4c1.9,2.3,2.1,5.5,0.4,8.5C-300.8,24.5-302.1,26.7-303.4,28.9z M-306.1,18.8c-0.7,0.1-1,0.1-1.2,0.2
			c-24.2,8.6-36.5,31.5-32.8,54.7c2.8,17.6,11.5,32.3,26.2,42.9c1.3,0.9,1.9,2.1,1.9,3.8c-0.1,12.2-0.1,24.4,0,36.6
			c0,4.5,0.1,9,0.4,13.4c1,12.7,6.8,22.8,16.8,30.5c8,6.2,17.2,8.7,27.1,8.8c11.2,0.1,22.3,0,33.5,0c2.4,0,4.8-0.1,7.2-0.5
			c13.6-2.3,24.2-9.2,31.3-21.2c4.2-7,5.8-14.8,5.9-22.8c0.1-14.9,0-29.8,0-44.7c0-1.7,0.5-3,1.9-4c8-5.3,13.7-12.6,18.4-20.8
			c6.4-11.3,9.8-23.3,8-36.4c-2-14-8.7-25.4-20.2-33.8c-4.2-3-8.7-5.3-14.2-6.9c1.8,3.1,3.4,5.7,5,8.4c1.9,3.2,1.6,4.7-1.6,6.9
			c-1.7,1.2-3.5,2.4-5.2,3.6c0.9,0.8,1.6,1.4,2.2,2c0.6,0.6,1.2,1.3,1.8,2c6.6,8.1,9.1,17.4,8,27.7c-1.3,12.5-6.6,22.9-15.4,31.7
			c-1.4,1.4-2.9,1.8-4.9,1.2c-10.8-3.2-21.9-5.4-33.1-6.5c-10.3-1-20.6-0.8-30.8,0.7c-8.8,1.3-17.4,3.6-26.1,5.5
			c-1.8,0.4-3.3,0.2-4.7-1.2c-4.1-4-7.5-8.5-10.1-13.6c-4.5-8.8-6.7-18.2-5.2-28.1c1.3-8.5,5.1-15.8,11.8-21.4
			c-0.2-0.2-0.4-0.3-0.6-0.5c-1.7-1.1-3.3-2.2-5-3.4c-2.7-1.8-3.1-3.5-1.4-6.3C-309.6,24.7-308,21.9-306.1,18.8z"/>
		<path class="st2" d="M-265.4,162.5c0.1,6.7-1.8,12.1-5.9,16.7c-6.9,7.5-17.3,7.5-24.2-0.1c-7.8-8.6-8-23.1-0.3-31.7
			c7.7-8.6,19.8-7.8,26.4,1.8C-266.6,153.4-265.2,158-265.4,162.5z"/>
		<path class="st2" d="M-236.7,163.5c-0.1-6.6,1.7-11.9,5.8-16.4c6.9-7.6,17.4-7.6,24.4-0.1c8.1,8.8,7.9,24-0.5,32.6
			c-7.5,7.7-19.2,6.6-25.5-2.5C-235.4,172.9-236.9,168.2-236.7,163.5z"/>
	</g>
</g>
<g class="st0">
	<g class="st1">
		<path class="st3" d="M220.7,223.5c-71.5,0-143,0-214.5,0c0-72.3,0-144.7,0-217c71.5,0,143,0,214.5,0c0,0.7-0.1,1.4-0.1,2.1
			c0,70.9,0,141.9,0,212.8C220.6,222.1,220.6,222.8,220.7,223.5z M64.6,33c1.2-2,2.4-3.9,3.4-5.7c1.8-3.1,1.7-6.5-0.2-8.8
			c-2-2.5-4.8-3.1-8.5-2c-9.8,3-17.7,8.9-24.2,16.7C23.3,47.4,20.2,63.9,24.3,81.5c3.5,15.3,11.4,28.3,24.1,38
			c0.7,0.6,1.3,1.8,1.3,2.7c0.1,13.2,0.2,26.4,0,39.6c-0.1,6.5,1.1,12.7,3.3,18.7c5.9,16.5,24.3,29.6,41.8,29.6
			c12.1,0,24.3,0,36.4,0c2.7,0,5.4-0.3,8.1-0.8c20.8-3.7,37.8-22.4,37.9-45.7c0-13.8,0-27.5,0.1-41.3c0-0.9,0.4-2.1,1.1-2.7
			c6.6-5.1,11.9-11.2,16.2-18.4c7.6-12.7,11-26.3,9.1-41.1c-1.8-14.8-9.3-26.2-20.4-35.6c-4.7-3.9-10.2-6.5-16-8.3
			c-1-0.3-2.2-0.6-3.2-0.5c-5.5,0.5-8,5.9-5.2,11c1.1,2,2.3,3.9,3.6,6c-0.8,0.5-1.4,1.1-2.1,1.5c-5.5,2.9-5.3,9.3-0.9,12.7
			c5.3,4.2,7.7,10.2,8.2,16.8c0.9,11.5-3.3,21.2-10.9,29.6c-0.4,0.4-1.4,0.6-1.9,0.5c-10.1-2.8-20.3-4.9-30.8-5.6
			c-9.4-0.7-18.7-0.7-27.9,0.7c-7.8,1.1-15.4,3.1-23.2,4.7c-0.7,0.1-1.8-0.2-2.3-0.7c-3.4-3.6-6-7.8-8-12.4
			c-5-11.6-3.8-26.8,6.7-34.9c3.2-2.5,2.8-7.4-0.4-10.1C67.3,34.8,66,34,64.6,33z"/>
		<path class="st3" d="M163.1,41c1.9-1.2,3.6-2.4,5.3-3.6c2.3-1.6,2.7-3.3,1.3-5.7c-1.6-2.7-3.1-5.4-4.4-8.5c1.7,0.7,3.5,1.1,5,2
			c5.8,3.4,11.5,7,15.8,12.3c6.2,7.6,9.7,16.1,10.7,25.9c1.4,14.1-3.5,26.3-11,37.8c-3.7,5.7-8.2,10.5-13.8,14.3
			c-1.3,0.9-1.8,2.1-1.8,3.8c0.1,14,0.1,28.1,0,42.1c-0.1,8.2-1.9,16-6.3,23c-6.6,10.5-16.3,16.5-28.5,18.4
			c-2.6,0.4-5.3,0.4-7.9,0.4c-10,0-20,0.2-29.9,0c-16-0.3-28.4-7.1-36.3-21.3c-3.5-6.4-4.9-13.4-4.9-20.6c0-14,0-28.1,0-42.1
			c0-1.5-0.4-2.7-1.7-3.6c-10.6-7.1-16.7-17.5-21.4-28.9c-2.6-6.2-3.9-12.6-3.7-19.3c0.6-18.3,8.7-32.2,24.9-41
			c2.2-1.2,4.4-2.4,6.6-3.5c0.2,0.2,0.3,0.4,0.5,0.5c-1.5,2.6-2.9,5.2-4.4,7.7c-1.8,3-1.5,4.5,1.5,6.5c1.6,1.1,3.2,2.2,4.9,3.3
			c-6.3,5.4-9.9,12.2-11,20.1c-1.4,9.5,0.7,18.5,5.1,27c2.4,4.5,5.5,8.6,9.1,12.2c1.4,1.4,2.8,1.6,4.6,1.2c8-1.7,16-3.9,24.1-5.1
			c7.2-1,14.6-1.2,21.8-1.1c13,0.1,25.7,2.8,38.2,6.5c1.5,0.5,2.9,0.2,4-1c8.3-8.2,13.4-17.9,14.6-29.6c1.1-9.9-1.1-18.7-7.4-26.5
			c-0.5-0.6-1.1-1.3-1.7-1.9C164.6,42.3,163.9,41.8,163.1,41z M100.2,159.3c-0.2-1.7-0.3-3.5-0.6-5.2c-1.1-5.7-4.5-10.1-9.1-13.5
			c-3.7-2.7-11.5-2.7-16.4,1.4c-8.9,7.5-10.1,21.8-3.6,30.6c6.4,8.7,17.4,9.3,24.5,1.2C98.6,169.8,100.2,164.8,100.2,159.3z
			 M160.6,159.5c-0.2-1.7-0.3-3.5-0.6-5.2c-1.1-5.9-4.5-10.3-9.2-13.6c-3.8-2.7-11.5-2.6-16.3,1.4c-8.8,7.3-10.1,21.4-4,30.2
			c6.3,9.1,17.6,9.9,24.9,1.6C159,169.8,160.6,164.9,160.6,159.5z"/>
	</g>
	<rect x="212" y="-1" class="st4" width="17" height="232"/>
	<rect x="-2.5" y="-1" class="st4" width="17.5" height="232"/>
	<rect x="0" y="-1" class="st4" width="227" height="15"/>
	<rect x="-0.2" y="216" class="st4" width="227" height="15"/>
</g>
<g>
	<g>
		<path class="st5" d="M138.8,99.4c19,1.7,37-1,54.3-5.5c5.3,3.8,7.2,8.8,8.1,13.9c1.6,9.7,0.8,19.3-3.6,28.3
			c-1.2,2.5-2.8,4.9-4.7,6.8c-5.1,5.2-13,3.4-14.7-3.6c-2.7-11.1-0.8-21.5,6.9-30.4c1.5-1.7,3.2-3.3,5.8-2.9
			c6.2,6.6,5.5,21-1.9,28.2c-0.6-1.5-1.6-2.9-1.4-4c0.7-4,1.7-7.9,2.9-11.8c0.5-1.7,0.8-1.6,0-4.5c-1.3,1.4-2.7,2.3-3.3,3.6
			c-2.4,4.8-3.5,9.9-3.2,15.2c0.1,1,0.3,1.9,0.7,2.9c1.4,3.8,4.4,4.6,7.2,1.7c1.5-1.5,2.7-3.3,3.6-5.2c3.5-8.1,4-16.5,1.4-25
			c-2-6.6-6.8-8-11.9-3.4c-2.6,2.4-4.6,5.5-6.2,8.7c-3.6,7-5.2,14.5-4.6,22.4c0.3,3,0.9,6.2,2.1,9c4.1,9.1,12.1,10.2,18.7,2.8
			c6.4-7.2,10.2-15.7,10.4-25.4c0.1-5.5-0.3-11.1-1.1-16.6c-0.7-4.8-3.5-8.8-7-12.2c-2.4-2.3-4.9-3.1-8.5-1.9
			c-13.8,4.7-28.1,6.3-42.6,6.7c-1.3,0-2.6-0.1-3.9-0.2c-0.4-0.1-0.9-0.4-1.6-0.8c0.4-2.1,0.8-4.3,1.3-6.7c1.3-0.1,2.4-0.3,3.5-0.1
			c10.9,1.1,21.6-0.2,32.2-2.4c3.8-0.8,7.7-1.5,11.5-2.5c3.9-1,7.3,0,10,2.5c2.3,2.2,4.7,4.8,6,7.7c7.4,17,8.3,34-2.5,50.1
			c-2.6,3.8-6.3,7.1-10.1,9.9c-3,2.2-6.6,3-10.7,2c-13-3.3-26.1-6.3-39.2-9.2c-6.7-1.5-13.5-2.6-19.8-3.8c-2-2.5-3.7-4.6-5.7-7.1
			c4-7.8,4.1-15.5-4.4-22.2c2.1-1.2,3.8-2.5,5.7-3.2C125.9,108,133.5,105.4,138.8,99.4z"/>
		<path class="st5" d="M27,69.2c2.6,0.2,4.7,0,6.6,0.6c6.7,2.1,13.6,3.9,20,6.8c10.8,4.9,21.8,9.1,33.5,11.1
			c1.1,0.2,2.2,0.6,2.2,0.6c3.2,4.1,5.7,7.4,8.4,10.8c-3.1,2.8-7.5,5.3-7.9,10.5c-11.1,5.7-11,13.2-6.9,23.3
			c-0.4,2.1-1.6,2.9-3.8,2.9c-11.8-0.4-23.6-0.5-35.4-1.3c-8.8-0.6-14.2-6.5-17.7-13.9c-5.7-12.1-5.4-24.4-0.3-36.7
			C28.5,77.1,28.4,76.8,27,69.2z"/>
		<path class="st5" d="M106.8,82.4c1.6,0.3,2.8,0.7,4,0.7c2,0,3.4,0.8,4.1,2.8c0.7,2,0.6,4-1,5.4c-3.6,3.3-7.8,5.4-12.9,4.6
			c-4.2-0.7-7-4.2-7.1-8.8c-0.2-5.8,2-10.8,7.2-13.6c8.9-4.7,18.6-5.4,27.4-0.6c11.8,6.4,12.5,21.6,2.4,28
			c-4.2,2.7-8.9,4.8-13.6,6.6c-3.9,1.5-6.9,3.8-8.5,7.6c-2,5-6.5,6.2-11,7.2c-2.4,0.6-3.4-1.4-4.3-3.3c-3-6.7,0.2-14.8,7.3-18
			c3.9-1.7,8-3,11.8-4.8c3.3-1.5,6.3-3.5,6.9-7.7c0.5-3.7-0.5-6.6-3-8.2C114,78.8,110.4,79.4,106.8,82.4z"/>
		<path class="st5" d="M43.5,66.9c5.8-2.5,11-3.3,16.5-0.8c8.1,3.6,16.2,7.1,24.3,10.5c2.5,1.1,5.2,1.6,8.4,2.6
			c-0.7,1.7-1.4,3.2-2,4.6C81.5,83.5,50.8,72.7,43.5,66.9z"/>
		<path class="st5" d="M98.7,141.5c-1.7-4.9-3.3-9.6-2.6-14.5c5.2-2.8,10.1-5.4,15.1-8.1c3.9,2.3,5.7,6.2,4.2,10.9
			C113.1,137.3,109.1,141.3,98.7,141.5z"/>
		<path class="st5" d="M85.3,137.2c1.7,1.4,3.3,3.1,5.1,4.3c6.2,4,12.6,4,19.1,0.6c1.5-0.8,3.3-1.8,4.9-1.6c1.5,0.1,3.5,1.2,4.2,2.5
			c0.5,0.9-0.2,3.2-1.1,4.2c-9.4,9.9-25.4,8.3-32.8-3.5c-0.1-0.1-0.2-0.3-0.2-0.4c-0.2-1.8-0.4-3.6-0.5-5.5
			C84.3,137.5,84.8,137.4,85.3,137.2z"/>
		<path class="st5" d="M92.6,123.4c0.6,6.5,1,11.6,1.5,16.9c-0.4-0.2-1.5-0.3-2.3-0.9c-3.7-2.9-6.6-6.4-8.3-10.8
			c-2.5-6.1-0.4-12.1,5.3-15.1C90.3,117.3,91.7,121,92.6,123.4z"/>
		<path class="st5" d="M137.3,149.8c-4.8,9.7-14.7,11.6-23.9,5.1c3.7-2.7,7.2-5.2,11.3-8.2C128.6,147.2,133,147.4,137.3,149.8z"/>
		<path class="st5" d="M137.9,78.6c7.8-2.7,14.8,0.6,16.2,7.3c-3.9,1.7-7.9,0.5-11.9,0.2C140.8,83.6,139.5,81.3,137.9,78.6z"/>
		<path class="st5" d="M85.1,150.2c-3.4,0.5-6.2-0.5-7.7-3.5c-1.4-2.6-1.8-5.5,1.3-8.6C80.9,142.3,82.9,146.1,85.1,150.2z"/>
	</g>
</g>
</svg>
