<?xml version="1.0" encoding="utf-8"?>
<!-- Generator: Adobe Illustrator 19.0.0, SVG Export Plug-In . SVG Version: 6.00 Build 0)  -->
<svg version="1.1" id="Camada_1" xmlns="http://www.w3.org/2000/svg" xmlns:xlink="http://www.w3.org/1999/xlink" x="0px" y="0px"
	 viewBox="-106 282 398 230" style="enable-background:new -106 282 398 230;" xml:space="preserve">
<style type="text/css">
	.st0{fill:#ECECEC;}
	.st1{enable-background:new    ;}
</style>
<g>
	<g>
		<g>
			<path class="st0" d="M281.7,443.3c0.4,10.2-0.6,21.4-5.1,32c-6.6,15.7-27.7,26.3-44.4,23.5c-23-3.9-40.2-17.3-55.9-33.3
				c-6.7-6.9-12.8-14.5-19.8-21.1c-9.2-8.6-20.8-12.1-33.3-12.2c-19.7-0.2-39.3,0-59-0.1c-15.2,0-28.1,5.5-39,16
				C13.8,459,2.7,470.3-9.4,480.5c-9.9,8.4-21.5,14.1-34.4,17c-25.2,5.6-49-10.9-51.2-36.7c-4.6-55.2,10.8-104.6,44.7-148.2
				c10.3-13.2,23.5-23,40.5-26.4c12.2-2.5,24.1-0.6,35.5,3.9c8.5,3.4,16.7,7.3,25,11.1c28.2,13,56.3,13,84.5-0.1
				c9.2-4.2,18.3-8.6,27.8-12c24.7-8.9,46.3-2.8,64.9,15c21.3,20.3,33.6,45.9,42.6,73.3C277.5,398.4,282.1,419.8,281.7,443.3z
				 M-13.3,383.4c0,4.3,0,7.8,0,11.3c0.1,4.5-0.5,9.1,0.4,13.4c1.4,6.6,8,10.1,15.6,9.3c6.1-0.7,11-6.4,11.1-13.3
				c0.1-6.8,0-13.5,0-20.7c7.1,0,13.6,0,20,0c8.6-0.1,14-5.5,14-13.9c0-8.2-5.3-13.2-14-13.2c-6.6,0-13.2,0-20,0
				c0-7.1,0-13.5,0-19.8c0-8.5-6.3-15.5-13.9-15c-8.6,0.5-14,7.5-13.4,14.8c0.6,6.5,0.1,13.2,0.1,19.9c-7.2,0-13.5,0.5-19.8-0.1
				c-8.2-0.8-14.8,5.8-15,13.8c-0.2,7.7,6.8,13.5,15.3,13.5C-26.5,383.4-20.2,383.4-13.3,383.4z M235.9,366.4c0-10-8.2-18.7-17.7-18
				c-11.5,0.8-17.6,9.2-17.5,17.9c0.1,10,8.2,18.6,17.9,18C230.1,383.7,236.7,374.3,235.9,366.4z M183.4,349.4
				c9.7,0.1,17.6-6.4,18.3-17.7c0.5-9.3-7.8-17-17.1-17.7c-10.2-0.7-18.5,7.8-18.8,17.6C165.5,341.2,173.8,349.4,183.4,349.4z
				 M131.7,366.2c-1.3,9.1,7.5,18,17.6,18.1c9.4,0.1,17.8-8.4,17.6-17.8c-0.3-11.5-8.1-18-17.8-18
				C138.1,348.5,130.4,358,131.7,366.2z M183.5,418.4c8.4,1.2,18.1-6.1,18-17.5c-0.1-9.8-6.5-17.2-17.7-17.6
				c-9.8-0.4-18.2,8.2-18.1,17.8C165.7,410.6,173.8,418.4,183.5,418.4z"/>
		</g>
	</g>
	<g class="st1">
		<path class="st0" d="M65.4,462.5c-0.5,0.2-1,0.4-1.6,0.6c-0.6,0.2-1.2,0.3-1.9,0.5s-1.4,0.2-2.1,0.3c-0.7,0.1-1.5,0.1-2.2,0.1
			c-1.9,0-3.5-0.2-4.9-0.6s-2.6-1-3.5-1.9s-1.6-2.1-2.1-3.6c-0.5-1.5-0.7-3.3-0.7-5.6c0-2.3,0.2-4.2,0.7-5.8s1.2-2.8,2.1-3.8
			c0.9-1,2-1.7,3.3-2.1s2.7-0.6,4.3-0.6c0.7,0,1.4,0,2.1,0.1c0.7,0.1,1.4,0.2,2.1,0.3s1.3,0.3,2,0.5c0.6,0.2,1.2,0.4,1.8,0.7
			l-1.2,3.1c-1.1-0.5-2.2-0.9-3.2-1.1c-1.1-0.2-2.1-0.3-3-0.3c-1.1,0-2,0.2-2.8,0.5c-0.8,0.3-1.4,0.9-1.9,1.5
			c-0.5,0.7-0.9,1.6-1.1,2.6c-0.2,1.1-0.4,2.3-0.4,3.8c0,1.5,0.1,2.9,0.4,4c0.2,1.1,0.6,2,1.2,2.7c0.5,0.7,1.2,1.2,2,1.6
			c0.8,0.3,1.8,0.5,3,0.5c0.6,0,1.2,0,1.8-0.1c0.6-0.1,1.2-0.2,1.8-0.4v-5.6h-3.7v-3.3h8.1V462.5z"/>
		<path class="st0" d="M81.7,440.4l8.7,23.2h-4.5l-2.6-7.1h-7.6l-2.6,7.1h-4.5l8.7-23.2H81.7z M79.4,445.2l-2.6,8H82L79.4,445.2z"/>
		<path class="st0" d="M117.4,440.4l2.6,23.2h-4.4l-1.9-17.2h-0.1l-5,17.3h-5l-5-17.3h-0.1l-1.9,17.2h-4.4l2.6-23.2h5.9l5.3,18.6
			l5.3-18.6H117.4z"/>
		<path class="st0" d="M138,440.4v3.3h-9.4v5.3h6.6v3.3h-6.6v8h9.7v3.3h-14.2v-23.2H138z"/>
	</g>
	<g class="st1">
		<path class="st0" d="M64.8,472.8v19.9h9v3.3H60.3v-23.2H64.8z"/>
		<path class="st0" d="M83.1,472.8V496h-4.5v-23.2H83.1z"/>
		<path class="st0" d="M89.3,492c0.9,0.3,1.8,0.6,2.9,0.9c1,0.2,2.1,0.3,3.3,0.3c0.8,0,1.5-0.1,2.1-0.2c0.6-0.1,1.2-0.4,1.7-0.7
			c0.5-0.3,0.8-0.7,1.1-1.2c0.3-0.5,0.4-1,0.4-1.7c0-0.7-0.1-1.3-0.4-1.7c-0.3-0.4-0.7-0.8-1.2-1s-1.1-0.5-1.9-0.7
			c-0.7-0.2-1.5-0.4-2.4-0.6c-1-0.3-1.9-0.6-2.7-0.9c-0.8-0.3-1.5-0.8-2.1-1.3s-1-1.2-1.4-1.9s-0.5-1.7-0.5-2.9c0-0.8,0.1-1.4,0.4-2
			s0.6-1.1,1-1.6c0.4-0.4,0.9-0.8,1.5-1.1c0.6-0.3,1.2-0.6,1.8-0.8s1.2-0.3,1.9-0.4c0.6-0.1,1.3-0.1,1.8-0.1c0.4,0,0.9,0,1.5,0.1
			c0.6,0,1.2,0.1,1.8,0.2c0.6,0.1,1.3,0.3,2,0.4c0.7,0.2,1.4,0.4,2,0.7l-1.1,2.8c-0.9-0.3-1.8-0.6-2.7-0.8c-0.9-0.2-1.9-0.3-2.9-0.3
			c-0.6,0-1.2,0.1-1.8,0.2c-0.5,0.1-1,0.3-1.4,0.5c-0.4,0.2-0.7,0.5-0.9,0.9s-0.3,0.8-0.3,1.3c0,0.7,0.1,1.2,0.4,1.6
			c0.3,0.4,0.6,0.7,1.1,0.9c0.5,0.2,1.1,0.4,1.8,0.6c0.7,0.2,1.5,0.4,2.4,0.6c1,0.3,1.9,0.6,2.7,0.9c0.8,0.3,1.6,0.8,2.2,1.4
			c0.6,0.6,1.1,1.2,1.4,2.1c0.3,0.8,0.5,1.8,0.5,3c0,1.1-0.2,2-0.5,2.7s-0.8,1.4-1.3,1.9c-0.5,0.5-1.1,0.9-1.8,1.2
			c-0.7,0.3-1.4,0.5-2.1,0.7s-1.4,0.3-2.1,0.3c-0.7,0-1.3,0.1-1.8,0.1c-0.5,0-1.1,0-1.7-0.1c-0.6-0.1-1.3-0.1-1.9-0.3
			s-1.4-0.3-2.1-0.5c-0.7-0.2-1.4-0.4-2-0.7L89.3,492z"/>
		<path class="st0" d="M126.5,472.8v3.3h-6.8V496h-4.5v-19.9h-6.8v-3.3H126.5z"/>
	</g>
</g>
</svg>
