<?xml version="1.0" encoding="utf-8"?>
<!-- Generator: Adobe Illustrator 19.0.0, SVG Export Plug-In . SVG Version: 6.00 Build 0)  -->
<svg version="1.1" id="Camada_1" xmlns="http://www.w3.org/2000/svg" xmlns:xlink="http://www.w3.org/1999/xlink" x="0px" y="0px"
	 viewBox="0 0 97.1 83.4" style="enable-background:new 0 0 97.1 83.4;" xml:space="preserve">
<style type="text/css">
	.st0{fill:#121416;}
	.st1{fill:#8671FF;}
</style>
<g>
	<g>
		<path class="st0" d="M52,57.3c6-0.4,11.3-2.5,15.8-6.4c5-4.3,9.1-9.2,10.4-16c0.2-1.2,0.8-2.4,0.8-3.7c0-3.5,0-6.9,0-10.7
			c5.9,0,11.7,0,17.8,0c0.7,8.8,0.2,17.6-3.5,26c-5.9,13.6-16,22.5-30,27c-1.7,0.5-3.5,0.7-5.2,1c-1.7-1.1-3.4-2.3-5.4-3.6
			c-1.7,1.6-3.2,3.1-4.7,4.6c-7.6,0.3-14.7-1.5-21.4-5.1c-9.2-4.9-16.2-12-21-21.2C2.9,43.8,1.7,38,0.9,32C-0.5,21.6,0.7,11.2,0,0.9
			C3.7,0,56.3-0.3,65.9,0.5c0,5.4,0,10.9,0,16.6c-0.9,0.1-1.8,0.1-2.8,0.2c-13.7,0-27.4,0-41.1,0c-1.3,0-2.5,0-3.9,0
			c0,6-0.6,11.6,1,17c0.9,3.2,2.2,6.4,3.9,9.2c2.5,4,5.6,7.6,10,9.7c0.7,1.9,1.1,4,2,5.8c2.7,5.2,9.3,6.4,13.4,2.3
			C49.8,60.1,50.9,58.6,52,57.3z"/>
		<path class="st1" d="M52,57.3c-0.8,2.4-2.6,3.7-3.6,4.4c-0.7,0.5-2.2,1.5-4.4,1.9c-0.9,0.1-3.3,0.5-5.6-0.9
			c-1.7-1-2.5-2.3-3.4-3.8c-0.5-0.9-1.9-3.1-2-5.8c-0.2-2.8,1-4.4,2.1-7c2.4-6,2.2-12.2,1.1-16.5c-1.7-6.3-4.6-9.8-12.2-11.6
			c-0.7-0.2-1.3-0.6-2-0.9c13.7,0,27.4,0,41.1,0C61,18.2,58.8,19,56.8,20c-4.2,1.9-6.4,5.2-6.7,9.8c-0.2,2.4-1.5,4.6-1,7.1
			c0.4,1.9,0.5,3.8,0.8,5.7c0.3,2.1,0.7,2.4,1.2,4.6c0.5,2.2,0.8,4,1,5.2C52.3,53.2,52.8,55.1,52,57.3z"/>
		<path class="st1" d="M48,75.4c0.2-0.6,1.5-4.3,4.7-4.6c2.2-0.2,4.4,1.3,5.4,3.6c0,0.5-0.1,1-0.1,1.5c0.1,0.6,0.3,2.7-1,4.7
			c-0.3,0.5-2.3,3.3-5.2,2.8c-1.8-0.3-3.2-1.7-3.8-3.6C47.8,79,47.4,77.3,48,75.4z"/>
	</g>
</g>
</svg>
