<?xml version="1.0" encoding="utf-8"?>
<!-- Generator: Adobe Illustrator 19.0.0, SVG Export Plug-In . SVG Version: 6.00 Build 0)  -->
<svg version="1.1" id="Camada_1" xmlns="http://www.w3.org/2000/svg" xmlns:xlink="http://www.w3.org/1999/xlink" x="0px" y="0px"
	 viewBox="484 -222 1579 1174" style="enable-background:new 484 -222 1579 1174;" xml:space="preserve">
<style type="text/css">
	.st0{opacity:0.8;}
	.st1{fill:url(#SVGID_1_);}
	.st2{fill:url(#SVGID_2_);}
	.st3{fill:url(#SVGID_3_);}
	.st4{fill:url(#SVGID_4_);}
	.st5{fill:url(#SVGID_5_);}
	.st6{fill:url(#SVGID_6_);}
	.st7{fill:url(#SVGID_7_);}
	.st8{fill:url(#SVGID_8_);}
	.st9{opacity:0.3128;fill:url(#SVGID_9_);enable-background:new    ;}
	.st10{opacity:0.3128;fill:url(#SVGID_10_);enable-background:new    ;}
	.st11{opacity:0.3128;fill:url(#SVGID_11_);enable-background:new    ;}
	.st12{opacity:0.3128;fill:url(#SVGID_12_);enable-background:new    ;}
	.st13{fill:url(#SVGID_13_);}
	.st14{opacity:0.169;fill:url(#SVGID_14_);enable-background:new    ;}
	.st15{opacity:0.3128;fill:url(#SVGID_15_);enable-background:new    ;}
	.st16{opacity:0.3128;fill:url(#SVGID_16_);enable-background:new    ;}
	.st17{fill:url(#SVGID_17_);}
	.st18{opacity:0.144;fill:url(#SVGID_18_);enable-background:new    ;}
</style>
<g class="st0">
	
		<linearGradient id="SVGID_1_" gradientUnits="userSpaceOnUse" x1="1248.3119" y1="1110.7683" x2="1217.9137" y2="1110.4093" gradientTransform="matrix(-0.8192 0.5736 -0.5736 -0.8192 2566.7644 222.5468)">
		<stop  offset="0" style="stop-color:#8468F5"/>
		<stop  offset="1" style="stop-color:#EC74E7"/>
	</linearGradient>
	<path class="st1" d="M836-68.7L836-68.7c-1.8,1.3-2.2,3.8-1,5.6l133.6,190.9c1.3,1.8,3.8,2.2,5.6,1l0,0c1.8-1.3,2.2-3.8,1-5.6
		L841.6-67.7C840.3-69.5,837.8-70,836-68.7z"/>
	
		<linearGradient id="SVGID_2_" gradientUnits="userSpaceOnUse" x1="1286.3518" y1="1134.104" x2="1235.1766" y2="1133.7791" gradientTransform="matrix(-0.8192 0.5736 -0.5736 -0.8192 2938.1262 204.5468)">
		<stop  offset="0" style="stop-color:#8468F5"/>
		<stop  offset="1" style="stop-color:#EC74E7"/>
	</linearGradient>
	<path class="st2" d="M1204.5-76.3L1204.5-76.3c-1.4,1-1.7,2.8-0.7,4.2l100.4,143.4c1,1.4,2.8,1.7,4.2,0.7l0,0
		c1.4-1,1.7-2.8,0.7-4.2L1208.6-75.5C1207.7-76.9,1205.8-77.2,1204.5-76.3z"/>
	
		<linearGradient id="SVGID_3_" gradientUnits="userSpaceOnUse" x1="1260.8053" y1="1196.859" x2="1213.772" y2="1194.1071" gradientTransform="matrix(-0.8192 0.5736 -0.5736 -0.8192 3243.5813 365.5468)">
		<stop  offset="0" style="stop-color:#8468F5"/>
		<stop  offset="1" style="stop-color:#EC74E7"/>
	</linearGradient>
	<path class="st3" d="M1512.4,74.6L1512.4,74.6c-2,1.4-2.5,4.2-1.1,6.3l35,50c1.4,2,4.2,2.5,6.3,1.1l0,0c2-1.4,2.5-4.2,1.1-6.3
		l-35-50C1517.3,73.7,1514.5,73.2,1512.4,74.6z"/>
	
		<linearGradient id="SVGID_4_" gradientUnits="userSpaceOnUse" x1="2306.4417" y1="1206.636" x2="2259.4082" y2="1203.884" gradientTransform="matrix(-0.8192 0.5736 -0.5736 -0.8192 3243.5813 365.5468)">
		<stop  offset="0" style="stop-color:#8468F5"/>
		<stop  offset="1" style="stop-color:#EC74E7"/>
	</linearGradient>
	<path class="st4" d="M650.3,666.3L650.3,666.3c-2,1.4-2.5,4.2-1.1,6.3l35,50c1.4,2,4.2,2.5,6.3,1.1l0,0c2-1.4,2.5-4.2,1.1-6.3
		l-35-50C655.1,665.4,652.3,664.9,650.3,666.3z"/>
	
		<linearGradient id="SVGID_5_" gradientUnits="userSpaceOnUse" x1="1252.7202" y1="1031.0576" x2="1138.7922" y2="1028.0247" gradientTransform="matrix(-0.8192 0.5736 -0.5736 -0.8192 2601.7864 203.5468)">
		<stop  offset="0" style="stop-color:#8468F5"/>
		<stop  offset="1" style="stop-color:#EC74E7"/>
	</linearGradient>
	<path class="st5" d="M862-81.4L862-81.4c-6.8,4.8-8.4,14.1-3.7,20.9l212.2,303.1c4.8,6.8,14.1,8.4,20.9,3.7l0,0
		c6.8-4.8,8.4-14.1,3.7-20.9L882.9-77.7C878.2-84.5,868.8-86.1,862-81.4z"/>
	
		<linearGradient id="SVGID_6_" gradientUnits="userSpaceOnUse" x1="1339.6624" y1="1096.6697" x2="1098.3221" y2="1094.0597" gradientTransform="matrix(-0.8192 0.5736 -0.5736 -0.8192 2648.0513 93.5468)">
		<stop  offset="0" style="stop-color:#8468F5"/>
		<stop  offset="0.9465" style="stop-color:#E673E8"/>
		<stop  offset="1" style="stop-color:#EC74E7"/>
	</linearGradient>
	<path class="st6" d="M907.6-208.5l-0.4,0.3c-5.1,3.6-6.3,10.6-2.8,15.7l159.2,227.3c3.6,5.1,10.6,6.3,15.7,2.8l0.4-0.3
		c5.1-3.6,6.3-10.6,2.8-15.7L923.3-205.8C919.7-210.9,912.7-212.1,907.6-208.5z"/>
	
		<linearGradient id="SVGID_7_" gradientUnits="userSpaceOnUse" x1="1231.0045" y1="1059.0518" x2="1158.8193" y2="1057.8348" gradientTransform="matrix(-0.8192 0.5736 -0.5736 -0.8192 3564.7715 121.5468)">
		<stop  offset="0" style="stop-color:#8468F5"/>
		<stop  offset="1" style="stop-color:#EC74E7"/>
	</linearGradient>
	<path class="st7" d="M1829.5-200.6L1829.5-200.6c-4.3,3-5.3,8.9-2.3,13.2l218.5,312.1c3,4.3,8.9,5.3,13.2,2.3l0,0
		c4.3-3,5.3-8.9,2.3-13.2l-218.5-312.1C1839.7-202.5,1833.8-203.6,1829.5-200.6z"/>
	
		<linearGradient id="SVGID_8_" gradientUnits="userSpaceOnUse" x1="1250.5061" y1="1031.2006" x2="1178.3209" y2="1029.9836" gradientTransform="matrix(-0.8192 0.5736 -0.5736 -0.8192 3299.7715 835.5468)">
		<stop  offset="0" style="stop-color:#8468F5"/>
		<stop  offset="1" style="stop-color:#EC74E7"/>
	</linearGradient>
	<path class="st8" d="M1564.5,547.4L1564.5,547.4c-4.3,3-5.3,8.9-2.3,13.2l218.5,312.1c3,4.3,8.9,5.3,13.2,2.3l0,0
		c4.3-3,5.3-8.9,2.3-13.2l-218.5-312.1C1574.7,545.5,1568.8,544.4,1564.5,547.4z"/>
	
		<linearGradient id="SVGID_9_" gradientUnits="userSpaceOnUse" x1="1239.9691" y1="1115.583" x2="1221.5499" y2="1115.451" gradientTransform="matrix(-0.809 0.5878 -0.5878 -0.809 2896.5752 751.7656)">
		<stop  offset="0" style="stop-color:#8468F5"/>
		<stop  offset="1" style="stop-color:#EC74E7"/>
	</linearGradient>
	<path class="st9" d="M1165.7,481.4L1165.7,481.4c-1.1,0.8-1.3,2.3-0.5,3.4L1304,675.9c0.8,1.1,2.3,1.3,3.4,0.5l0,0
		c1.1-0.8,1.3-2.3,0.5-3.4L1169.1,482C1168.3,480.9,1166.8,480.6,1165.7,481.4z"/>
	
		<linearGradient id="SVGID_10_" gradientUnits="userSpaceOnUse" x1="811.1987" y1="804.0633" x2="792.7795" y2="803.9313" gradientTransform="matrix(-0.809 0.5878 -0.5878 -0.809 2896.5752 751.7656)">
		<stop  offset="0" style="stop-color:#8468F5"/>
		<stop  offset="1" style="stop-color:#EC74E7"/>
	</linearGradient>
	<path class="st10" d="M1695.7,481.4L1695.7,481.4c-1.1,0.8-1.3,2.3-0.5,3.4L1834,675.9c0.8,1.1,2.3,1.3,3.4,0.5l0,0
		c1.1-0.8,1.3-2.3,0.5-3.4L1699.1,482C1698.3,480.9,1696.8,480.6,1695.7,481.4z"/>
	
		<linearGradient id="SVGID_11_" gradientUnits="userSpaceOnUse" x1="1483.6349" y1="1470.5696" x2="1465.2157" y2="1470.4376" gradientTransform="matrix(-0.809 0.5878 -0.5878 -0.809 3042.5752 1109.7656)">
		<stop  offset="0" style="stop-color:#8468F5"/>
		<stop  offset="1" style="stop-color:#EC74E7"/>
	</linearGradient>
	<path class="st11" d="M905.9,695.5L905.9,695.5c-1.1,0.8-1.3,2.3-0.5,3.4l138.8,191.1c0.8,1.1,2.3,1.3,3.4,0.5l0,0
		c1.1-0.8,1.3-2.3,0.5-3.4L909.3,696C908.5,694.9,907,694.7,905.9,695.5z"/>
	
		<linearGradient id="SVGID_12_" gradientUnits="userSpaceOnUse" x1="1239.9691" y1="1115.583" x2="1221.5499" y2="1115.451" gradientTransform="matrix(-0.809 0.5878 -0.5878 -0.809 3227.5742 897.7656)">
		<stop  offset="0" style="stop-color:#8468F5"/>
		<stop  offset="1" style="stop-color:#EC74E7"/>
	</linearGradient>
	<path class="st12" d="M1496.7,627.4L1496.7,627.4c-1.1,0.8-1.3,2.3-0.5,3.4L1635,821.9c0.8,1.1,2.3,1.3,3.4,0.5l0,0
		c1.1-0.8,1.3-2.3,0.5-3.4L1500.1,628C1499.3,626.9,1497.8,626.6,1496.7,627.4z"/>
	
		<linearGradient id="SVGID_13_" gradientUnits="userSpaceOnUse" x1="1239.9575" y1="1186.0685" x2="1221.5428" y2="1185.7515" gradientTransform="matrix(-0.809 0.5878 -0.5878 -0.809 2843.5752 721.7656)">
		<stop  offset="0" style="stop-color:#8468F5"/>
		<stop  offset="1" style="stop-color:#EC74E7"/>
	</linearGradient>
	<path class="st13" d="M1112.7,451.4L1112.7,451.4c-1.1,0.8-1.3,2.3-0.5,3.4l55.9,77c0.8,1.1,2.3,1.3,3.4,0.5l0,0
		c1.1-0.8,1.3-2.3,0.5-3.4l-55.9-77C1115.3,450.9,1113.8,450.6,1112.7,451.4z"/>
	
		<linearGradient id="SVGID_14_" gradientUnits="userSpaceOnUse" x1="1240.3589" y1="1198.527" x2="1214.354" y2="1197.684" gradientTransform="matrix(-0.809 0.5878 -0.5878 -0.809 2356.1963 351.4786)">
		<stop  offset="0" style="stop-color:#8468F5"/>
		<stop  offset="1" style="stop-color:#EC74E7"/>
	</linearGradient>
	<path class="st14" d="M624.5,81.7L624.5,81.7c-1.5,1.1-1.9,3.3-0.8,4.8l40.1,55.1c1.1,1.5,3.3,1.9,4.8,0.8l0,0
		c1.5-1.1,1.9-3.3,0.8-4.8l-40.1-55.1C628.2,81,626,80.6,624.5,81.7z"/>
	
		<linearGradient id="SVGID_15_" gradientUnits="userSpaceOnUse" x1="1240.6025" y1="1115.5653" x2="1210.2043" y2="1115.2063" gradientTransform="matrix(-0.809 0.5878 -0.5878 -0.809 3033.1262 805.7656)">
		<stop  offset="0" style="stop-color:#8468F5"/>
		<stop  offset="1" style="stop-color:#EC74E7"/>
	</linearGradient>
	<path class="st15" d="M1301,536.4L1301,536.4c-1.8,1.3-2.2,3.8-0.9,5.6l137,188.5c1.3,1.8,3.8,2.2,5.6,0.9l0,0
		c1.8-1.3,2.2-3.8,0.9-5.6l-137-188.5C1305.3,535.4,1302.8,535.1,1301,536.4z"/>
	
		<linearGradient id="SVGID_16_" gradientUnits="userSpaceOnUse" x1="646.4824" y1="1038.1794" x2="616.0842" y2="1037.8204" gradientTransform="matrix(-0.809 0.5878 -0.5878 -0.809 3033.1262 805.7656)">
		<stop  offset="0" style="stop-color:#8468F5"/>
		<stop  offset="1" style="stop-color:#EC74E7"/>
	</linearGradient>
	<path class="st16" d="M1827.1,249.7L1827.1,249.7c-1.8,1.3-2.2,3.8-0.9,5.6l137,188.5c1.3,1.8,3.8,2.2,5.6,0.9l0,0
		c1.8-1.3,2.2-3.8,0.9-5.6l-137-188.5C1831.4,248.8,1828.9,248.4,1827.1,249.7z"/>
	
		<linearGradient id="SVGID_17_" gradientUnits="userSpaceOnUse" x1="1239.9691" y1="1115.583" x2="1221.5499" y2="1115.451" gradientTransform="matrix(-0.809 0.5878 -0.5878 -0.809 2258.5754 545.7656)">
		<stop  offset="0" style="stop-color:#8468F5"/>
		<stop  offset="1" style="stop-color:#EC74E7"/>
	</linearGradient>
	<path class="st17" d="M527.7,275.4L527.7,275.4c-1.1,0.8-1.3,2.3-0.5,3.4L666,469.9c0.8,1.1,2.3,1.3,3.4,0.5l0,0
		c1.1-0.8,1.3-2.3,0.5-3.4L531.1,276C530.3,274.9,528.8,274.6,527.7,275.4z"/>
	
		<linearGradient id="SVGID_18_" gradientUnits="userSpaceOnUse" x1="1241.395" y1="1115.5299" x2="1195.8055" y2="1114.7239" gradientTransform="matrix(-0.809 0.5878 -0.5878 -0.809 2226.3625 545.7656)">
		<stop  offset="0" style="stop-color:#8468F5"/>
		<stop  offset="1" style="stop-color:#EC74E7"/>
	</linearGradient>
	<path class="st18" d="M492.6,277.5L492.6,277.5c-2.7,1.9-3.3,5.7-1.3,8.4l134.6,185.3c1.9,2.7,5.7,3.3,8.4,1.3l0,0
		c2.7-1.9,3.3-5.7,1.3-8.4L501,278.9C499,276.2,495.3,275.6,492.6,277.5z"/>
</g>
</svg>
